<svg viewBox="0 0 96 96" xmlns="http://www.w3.org/2000/svg" xmlns:xlink="http://www.w3.org/1999/xlink" id="Icons_Convertible" overflow="hidden"><path d="M21.5 51C17.9101 51 15 53.9101 15 57.5 15 61.0899 17.9101 64 21.5 64 25.0899 64 28 61.0899 28 57.5 28 53.9101 25.0899 51 21.5 51Z" fill="#FFFFFF"/><path d="M92.712 51.232C92.2663 50.8947 91.8443 50.5272 91.449 50.132 89.975 48.451 87.6 45.805 85 44.563 78.039 41.234 67 40.385 67 40.385 61.4898 36.9639 55.7417 33.9415 49.8 31.341 49.1237 31.0538 48.3388 31.2593 47.89 31.841 47.3526 32.5708 47.5086 33.598 48.2384 34.1354 48.3157 34.1924 48.3979 34.2424 48.484 34.285 51.0745 35.7167 53.5837 37.2907 56 39L53.957 39C52.8762 39 52 39.8762 52 40.957L40.443 40.957C40.208 40.9574 39.9736 40.935 39.743 40.89L39 40.745 39 37.107C39.0223 36.1022 38.3212 35.2258 37.336 35.027 36.2471 34.8414 35.214 35.5737 35.0284 36.6626 35.0094 36.774 34.9999 36.8869 35 37L35 39.97 30 39 25.245 38.207C24.0503 38.0062 22.8282 38.0367 21.645 38.297 20.617 38.526 19.568 38.827 18.996 38.997 15.403 40.087 6.368 43.232 3.779 44.997 1.826 46.329 2.963 54.148 2.963 54.148L2 55.361 1.973 56.167C1.93512 57.3016 2.69742 58.3076 3.8 58.578L4.86 58.84C6.49566 59.1616 8.15483 59.3492 9.821 59.401L12.229 59.536C11.779 57.5485 12.0035 55.4678 12.867 53.622 14.9953 48.8409 20.5965 46.6903 25.3777 48.8186 28.8051 50.3443 31.0097 53.7484 31 57.5 31.0001 58.4788 30.8483 59.4517 30.55 60.384L66.45 60.384C64.8301 55.3895 67.5658 50.0276 72.5602 48.4077 77.5547 46.7879 82.9167 49.5235 84.5365 54.518 85.0237 56.0201 85.129 57.6199 84.843 59.173L94 59.173 94 53.857C93.9974 52.8304 93.5224 51.8622 92.712 51.232Z" fill="#FFFFFF"/><path d="M75.5 51C71.9101 51 69 53.9101 69 57.5 69 61.0899 71.9101 64 75.5 64 79.0899 64 82 61.0899 82 57.5 82 53.9101 79.0899 51 75.5 51Z" fill="#FFFFFF"/></svg>