<svg viewBox="0 0 96 96" xmlns="http://www.w3.org/2000/svg" xmlns:xlink="http://www.w3.org/1999/xlink" id="Icons_BoardOfDirectors" overflow="hidden"><path d="M89.429 63.052C90.5984 62.727 91.4558 61.7281 91.6 60.523L93.977 40.717C94.1747 39.0753 93.0041 37.5842 91.3624 37.3865 91.3008 37.3791 91.239 37.3736 91.177 37.37L80.171 36.722C78.6008 36.6317 77.2274 37.7694 77.024 39.329L76.342 44.617 74.661 42.043 75.044 39.074C75.3689 36.5845 77.4894 34.722 80 34.721 80.1 34.721 80.2 34.721 80.3 34.73L85.054 35.009 85.741 30.792C86.0039 29.1561 84.8909 27.6169 83.255 27.354 83.1652 27.3396 83.0748 27.3292 82.984 27.323L74.035 26.723C72.4854 26.6222 71.115 27.7206 70.876 29.255L70 34.894 68.366 32.394 68.896 28.956C69.2607 26.5163 71.3612 24.7143 73.828 24.725 73.938 24.725 74.05 24.725 74.162 24.737L76.136 24.868 76.447 22.068C76.6277 20.421 75.4391 18.9394 73.7921 18.7587 73.7615 18.7553 73.7308 18.7524 73.7 18.75L66.714 18.213C65.096 18.0881 63.6721 19.2724 63.5 20.886L63.047 25.192C61.2393 23.7575 58.9987 22.9785 56.691 22.982L55.818 22.982 55.818 15.982C55.8172 15.2579 55.5295 14.5636 55.018 14.051 54.6506 13.7428 54.2403 13.4898 53.8 13.3 50.1144 11.5816 45.8612 11.5634 42.161 13.25 41.6475 13.4547 41.162 13.7235 40.716 14.05 40.2045 14.5626 39.9168 15.2569 39.916 15.981L39.916 22.981 38.954 22.981C36.7872 22.9785 34.6756 23.6645 32.924 24.94L32.5 20.886C32.328 19.2749 30.9077 18.0915 29.292 18.213L22.306 18.75C20.6542 18.8798 19.4205 20.3241 19.5503 21.9759 19.5527 22.0066 19.5556 22.0373 19.559 22.068L19.87 24.868 21.844 24.737C21.956 24.729 22.068 24.725 22.178 24.725 24.6447 24.7139 26.7452 26.5162 27.109 28.956L27.574 31.962 25.94 34.462 25.14 29.256C24.901 27.7216 23.5306 26.6232 21.981 26.724L13.032 27.324C11.379 27.4372 10.1308 28.869 10.244 30.522 10.2502 30.6127 10.2606 30.7032 10.275 30.793L10.962 35.01 15.716 34.731C15.816 34.725 15.916 34.722 16.016 34.722 18.5235 34.727 20.6395 36.5886 20.964 39.075L21.29 41.606 19.6 44.181 18.974 39.329C18.7706 37.7694 17.3972 36.6317 15.827 36.722L4.822 37.37C3.17121 37.4653 1.91022 38.8808 2.0055 40.5315 2.00907 40.5935 2.01458 40.6554 2.022 40.717L4.4 60.523C4.54432 61.7284 5.40223 62.7273 6.572 63.052L10.728 64.207 10.728 68.407 7.236 68.407C5.30808 68.4103 3.74585 69.9721 3.742 71.9L3.742 72.588C3.0114 73.4164 3.0907 74.6803 3.91912 75.4109 4.74755 76.1415 6.0114 76.0622 6.742 75.2337 7.40867 74.4778 7.40867 73.3439 6.742 72.588L6.742 71.9C6.742 71.6239 6.96586 71.4 7.242 71.4L10.73 71.4 10.73 72.587C9.99783 73.414 10.0747 74.678 10.9018 75.4102 11.7288 76.1424 12.9928 76.0655 13.725 75.2384 14.395 74.4816 14.395 73.3438 13.725 72.587L13.725 71.4 17.219 71.4C17.4951 71.4 17.719 71.6239 17.719 71.9L17.719 72.588C16.9884 73.4164 17.0677 74.6803 17.8961 75.4109 18.7246 76.1415 19.9884 76.0622 20.719 75.2337 21.3857 74.4778 21.3857 73.3439 20.719 72.588L20.719 71.9C20.7157 69.9717 19.1533 68.4093 17.225 68.406L13.725 68.406 13.725 65.573C14.3456 65.9792 15.0263 66.2852 15.742 66.48L22.178 68.2C25.372 69.0527 28.6 69.7437 31.862 70.273L31.862 79.561C31.8664 80.9327 32.8006 82.1268 34.131 82.461L35.636 82.837C43.6801 84.4449 51.969 84.3802 59.987 82.647L60.587 82.487C61.8949 82.1368 62.8061 80.9539 62.811 79.6L62.811 70.415C66.3548 69.8766 69.8669 69.1472 73.332 68.23L79.917 66.478C80.7682 66.2506 81.5691 65.8652 82.278 65.342L82.278 68.406 78.784 68.406C76.8557 68.4093 75.2933 69.9717 75.29 71.9L75.29 72.588C74.5578 73.415 74.6348 74.679 75.4618 75.4112 76.2888 76.1434 77.5528 76.0665 78.285 75.2394 78.955 74.4826 78.955 73.3448 78.285 72.588L78.285 71.9C78.285 71.6239 78.5089 71.4 78.785 71.4L82.279 71.4 82.279 72.587C81.5468 73.414 81.6237 74.678 82.4508 75.4102 83.2778 76.1424 84.5418 76.0655 85.274 75.2384 85.944 74.4816 85.944 73.3438 85.274 72.587L85.274 71.4 88.768 71.4C89.0441 71.4 89.268 71.6239 89.268 71.9L89.268 72.588C88.5374 73.4164 88.6167 74.6803 89.4451 75.4109 90.2736 76.1415 91.5374 76.0622 92.268 75.2337 92.9347 74.4778 92.9347 73.3439 92.268 72.588L92.268 71.9C92.2647 69.9693 90.6987 68.406 88.768 68.406L85.273 68.406 85.273 64.206ZM72.305 64.371C64.3141 66.4961 56.0806 67.5718 47.812 67.571 39.5063 67.5703 31.2362 66.4841 23.212 64.34L16.776 62.62C15.298 62.298 14.3608 60.8388 14.6828 59.3608 14.756 59.0248 14.8917 58.7057 15.083 58.42L33.922 29.536C35.0807 27.9111 36.9603 26.9548 38.956 26.975L56.7 26.975C58.6952 26.9549 60.5745 27.9102 61.734 29.534L80.586 58.416C81.4277 59.6722 81.0917 61.373 79.8354 62.2147 79.5487 62.4068 79.2283 62.5429 78.891 62.616Z" fill="#FFFFFF"/></svg>