<svg viewBox="0 0 96 96" xmlns="http://www.w3.org/2000/svg" xmlns:xlink="http://www.w3.org/1999/xlink" id="Icons_Comet" overflow="hidden"><g><circle cx="26" cy="72" r="15" fill="#FFFFFF"/><path d="M72.8 26.7 85 9 47.4 46.6 72.9 11.2 47.4 37.8 54 25.6 38.5 43.3 40.7 36.7 20.8 53.7C22.5 53.2 24.2 53 26 53 36.5 53 45 61.5 45 72 45 74.5 44.5 76.8 43.7 79L64 56.6 58.5 57.7 74 44.4 60.6 50 80.6 30 66.2 38.9 85 19 72.8 26.7Z" fill="#FFFFFF"/><path d="M57.7 19.8C58.5 20.3 59.6 19.9 60.1 18.9 60.8 17.7 60.7 17.9 61.5 13.1 61.5 13.1 57.8 16.2 57.2 17.2 56.8 18.2 56.9 19.3 57.7 19.8Z" fill="#FFFFFF"/><path d="M70.6 53.3C71.1 54.1 72.2 54.2 73.2 53.6 74.1 53 79 48.5 79 48.5 79 48.5 72.3 50.2 71.4 50.8 70.5 51.4 70.1 52.6 70.6 53.3Z" fill="#FFFFFF"/></g></svg>