<svg viewBox="0 0 96 96" xmlns="http://www.w3.org/2000/svg" xmlns:xlink="http://www.w3.org/1999/xlink" id="Icons_Jack-o-lantern" overflow="hidden"><path d="M57.8 14.5C57.8 14.4 57.7 14.2 57.7 14.2L54.4 11.2C54.3 11.1 54.1 11 54 11.1 52.3 11.3 45.9 12.9 42.8 26 42.5 26.9 42.1 27.7 41.6 28.5 41.6 28.5 38.5 26.6 36.1 26.6 31 26.6 28.5 29.3 28.5 29.3 27.1 28.6 25.6 28.4 24.1 28.5 16.4 28.5 9.1 40.4 9.1 55.8 9 68 16.1 79.8 23 79.8 24.2 79.8 25.4 79.6 26.6 79.3 26.6 79.3 29.1 83 35 83.7 37 83.8 39.1 83.2 40.7 82L41.4 81.5C41.4 81.5 43.2 84.4 47.8 84.8 51.5 85.1 54.9 81.6 54.9 81.6 56.5 83.2 58.7 84 61 83.8 64.3 83.6 67.5 82.1 69.6 79.5 70.7 79.8 71.8 80 73 80 79.7 80 87 68.1 87 55.9 87 40.7 79.8 28.4 72 28.4 70.5 28.4 69 28.7 67.6 29.2 65.5 27.3 62.8 26.3 60 26.5 58.2 26.4 56.3 27 54.9 28.1 54.6 27.8 54.2 27.4 53.8 27.1 52.9 26.3 52.2 25.3 51.7 24.1L51.7 24C51.4 22.1 53.5 16.7 57.6 14.7 57.6 14.7 57.8 14.6 57.8 14.5ZM57.7 46.5 62.1 39.4C62.3 39 62.8 38.9 63.1 39.2 63.2 39.3 63.3 39.4 63.4 39.5L67.2 47.2C67.4 47.6 67.2 48 66.9 48.2 66.8 48.3 66.6 48.3 66.5 48.3L58.3 47.8C57.9 47.8 57.6 47.4 57.6 47 57.6 46.7 57.7 46.6 57.7 46.5ZM44.4 53.1 47.9 48.6C48.2 48.3 48.6 48.2 49 48.5L49.1 48.6 52.6 53.1C52.9 53.4 52.8 53.9 52.5 54.2 52.4 54.3 52.2 54.4 52 54.4L45 54.4C44.6 54.4 44.2 54.1 44.2 53.7 44.3 53.4 44.3 53.2 44.4 53.1ZM30.5 47.1 34.3 39.4C34.5 39 34.9 38.9 35.3 39.1 35.4 39.2 35.5 39.3 35.6 39.4L40 46.5C40.2 46.9 40.1 47.3 39.8 47.5 39.7 47.6 39.6 47.6 39.5 47.6L31.3 48.1C30.9 48.1 30.5 47.8 30.5 47.4 30.4 47.4 30.4 47.3 30.5 47.1ZM74.4 52 72.2 62C72.2 62.1 72.1 62.3 72 62.4L64.6 69.4C64.3 69.7 63.8 69.7 63.5 69.4 63.5 69.4 63.5 69.4 63.4 69.3L59.5 64.1C59.3 63.8 58.8 63.7 58.5 63.9 58.4 64 58.4 64 58.3 64.1L55.2 69C55.1 69.2 54.8 69.3 54.6 69.3L41.4 69.3C41.1 69.3 40.9 69.2 40.8 69L37.1 63.4C36.9 63.1 36.4 63 36.1 63.2 36 63.3 35.9 63.4 35.8 63.5L33.5 68.5C33.3 68.9 32.9 69 32.5 68.9 32.4 68.9 32.4 68.8 32.3 68.8L25.7 63C25.6 62.9 25.5 62.8 25.5 62.7L21.6 52.8C21.5 52.4 21.6 52 22 51.8 22.3 51.7 22.5 51.8 22.8 51.9L31.1 59.1C31.2 59.2 31.3 59.3 31.5 59.3L41.6 60.7C41.8 60.7 42 60.8 42.1 61L46.4 67.4C46.6 67.7 47.1 67.8 47.4 67.6 47.5 67.6 47.5 67.5 47.6 67.4L51.7 61.7C51.8 61.5 52.1 61.4 52.3 61.4L63.6 61.4C63.8 61.4 64 61.3 64.2 61.2L73.1 51.4C73.4 51.1 73.9 51.1 74.2 51.4 74.4 51.5 74.4 51.8 74.4 52Z" fill="#FFFFFF"/></svg>