<svg viewBox="0 0 96 96" xmlns="http://www.w3.org/2000/svg" xmlns:xlink="http://www.w3.org/1999/xlink" id="Icons_Immunity" overflow="hidden"><path d="M14.0607 26.6714 14.0607 36.3245C14.0614 38.2952 14.1787 40.2641 14.4122 42.2209 16.1309 42.7792 17.5174 44.0646 18.2038 45.7363 18.512 45.6093 18.8294 45.5007 19.1465 45.3916 19.1509 42.4092 21.5723 39.9951 24.5547 39.9996 27.5055 40.004 29.9063 42.3761 29.9463 45.3267 30.6059 45.5478 31.251 45.81 31.878 46.1116 31.8826 42.7302 34.6275 39.9929 38.0089 39.9975 41.3903 40.0022 44.1276 42.7471 44.1229 46.1285 44.1203 48.0432 43.222 49.8465 41.6952 51.002 41.7445 51.0005 41.7938 51 41.8437 51 44.6947 51.0001 47.0058 53.3114 47.0057 56.1624 47.0056 58.7283 45.121 60.9047 42.5814 61.2715 45.6246 61.9416 47.5484 64.9519 46.8782 67.995 46.2081 71.0382 43.1979 72.962 40.1547 72.2918 39.4352 72.1334 38.7538 71.8356 38.1488 71.4153 37.9373 71.6983 37.7253 71.98 37.4969 72.2488 40.3172 73.5544 41.5451 76.8991 40.2395 79.7194 39.7155 80.8514 38.8301 81.7772 37.7226 82.3513 40.3308 84.5355 43.0755 86.5514 45.94 88.3867 47.2128 89.2043 48.8456 89.2043 50.1184 88.3867 68.6507 76.5073 81.9977 57.3103 81.9977 36.3245L81.9977 26.6714C82.0124 24.692 80.5102 23.0305 78.5393 22.8462 67.9325 21.9992 58.0426 17.1576 50.8678 9.2998 49.5149 7.73204 47.1472 7.55787 45.5795 8.91079 45.4404 9.03076 45.3104 9.16078 45.1905 9.2998 38.0158 17.1577 28.1258 21.9992 17.519 22.8462 15.5482 23.0305 14.046 24.692 14.0607 26.6714Z" fill="#FFFFFF"/><path d="M21.365 72.6609 20.5217 75.6968C18.7556 76.214 17.7431 78.0651 18.2604 79.8313 18.7776 81.5975 20.6287 82.6099 22.3949 82.0927 24.1611 81.5754 25.1735 79.7243 24.6563 77.9581 24.4569 77.2776 24.0457 76.6783 23.4823 76.2476L24.3443 73.1446C24.4936 73.1499 24.6399 73.167 24.7905 73.167 26.5179 73.1657 28.224 72.7861 29.7889 72.055L32.5485 76.3911C32.0992 77.7609 32.8454 79.2355 34.2151 79.6848 35.5848 80.1341 37.0595 79.3879 37.5087 78.0182 37.958 76.6484 37.2119 75.1738 35.8421 74.7245 35.5773 74.6376 35.3003 74.5938 35.0216 74.5945 35.0021 74.5945 34.9841 74.5999 34.9648 74.6004L32.3348 70.4676C33.7244 69.3224 34.8367 67.8775 35.5883 66.2412L38.6353 67.187C38.87 68.6242 40.2253 69.599 41.6625 69.3643 43.0997 69.1296 44.0745 67.7743 43.8398 66.3371 43.605 64.8999 42.2497 63.9251 40.8125 64.1598 40.5129 64.2088 40.224 64.3091 39.9585 64.4563L36.4893 63.3797C36.7392 62.0709 36.7523 60.728 36.528 59.4146L40.5386 58.0779C41.5354 58.7134 42.8586 58.4204 43.4941 57.4236 44.1295 56.4268 43.8366 55.1036 42.8398 54.4681 41.843 53.8327 40.5198 54.1256 39.8843 55.1224 39.8812 55.1274 39.8781 55.1323 39.875 55.1372L35.6989 56.5291C35.2009 55.3915 34.5278 54.3391 33.704 53.4099L37.2077 49.2969C38.8995 49.6961 40.5945 48.6482 40.9936 46.9565 41.3928 45.2647 40.345 43.5697 38.6532 43.1706 36.9615 42.7714 35.2665 43.8193 34.8673 45.511 34.7274 46.104 34.7626 46.725 34.9687 47.2984L31.4591 51.4185C29.893 50.3584 28.0954 49.6893 26.2173 49.4673L26.1481 47.321C27.1211 46.439 27.195 44.9353 26.313 43.9622 25.431 42.9892 23.9273 42.9153 22.9542 43.7973 21.9812 44.6793 21.9073 46.183 22.7893 47.1561 22.8988 47.2768 23.0203 47.386 23.1521 47.4819L23.2169 49.4897C21.2819 49.7452 19.4404 50.4759 17.8568 51.6167L15.584 49.1372C15.6892 48.8304 15.745 48.5087 15.7492 48.1843 15.7723 46.4529 14.3875 45.0306 12.6562 45.0074 10.9248 44.9843 9.50242 46.3691 9.47926 48.1004 9.4561 49.8318 10.8409 51.2542 12.5723 51.2773 12.8472 51.281 13.1214 51.2485 13.3879 51.1807L15.6552 53.654C14.1225 55.4868 13.1802 57.7404 12.9522 60.1186L11.0312 60.0667C10.2384 58.854 8.61257 58.5136 7.39989 59.3064 6.1872 60.0992 5.84682 61.725 6.63963 62.9377 7.43244 64.1504 9.05822 64.4907 10.2709 63.6979 10.5302 63.5284 10.7575 63.3142 10.9421 63.0654L13.0525 63.1226C13.3063 64.7564 13.9003 66.3188 14.7961 67.7085L10.4412 70.9397C10.1584 70.8428 9.86194 70.7915 9.56301 70.7876 7.98611 70.7876 6.70775 72.0659 6.70771 73.6428 6.70767 75.2197 7.98597 76.498 9.56287 76.4981 11.1398 76.4981 12.4181 75.2198 12.4182 73.6429 12.4182 73.6429 12.4182 73.6428 12.4182 73.6428 12.4143 73.5072 12.4007 73.372 12.3774 73.2383L16.734 70.0059C18.056 71.2311 19.6397 72.1391 21.365 72.6609ZM29.7871 63.6497C30.7069 63.6497 31.4526 64.3953 31.4526 65.3152 31.4526 66.235 30.7069 66.9807 29.7871 66.9807 28.8672 66.9807 28.1215 66.235 28.1215 65.3152 28.1216 64.3954 28.8672 63.6497 29.7871 63.6497ZM26.9319 57.4634C27.8517 57.4634 28.5974 58.2091 28.5974 59.1289 28.5974 60.0488 27.8517 60.7944 26.9319 60.7944 26.0121 60.7944 25.2664 60.0488 25.2664 59.1289 25.2664 58.2091 26.0121 57.4634 26.9319 57.4634ZM23.8388 64.1255C24.6273 64.1255 25.2664 64.7646 25.2664 65.5531 25.2664 66.3415 24.6273 66.9807 23.8388 66.9807 23.0504 66.9807 22.4113 66.3416 22.4112 65.5532 22.4111 64.7648 23.0503 64.1256 23.8387 64.1255 23.8388 64.1255 23.8388 64.1255 23.8388 64.1255Z" fill="#FFFFFF"/></svg>