<svg viewBox="0 0 96 96" xmlns="http://www.w3.org/2000/svg" xmlns:xlink="http://www.w3.org/1999/xlink" id="Icons_DentalCare" overflow="hidden"><path d="M64 49C64 43.283 68.061 36.867 69.994 30.243 66.9475 26.0086 62.8648 22.6273 58.137 20.423 58.066 20.3937 58.0322 20.3125 58.0615 20.2415 58.0756 20.2073 58.1028 20.1801 58.137 20.166 61.8567 18.4466 65.1806 15.9765 67.9 12.911 65.6397 9.70883 61.9171 7.86222 58 8 49.3 8 49.6 12 41 12 32.4 12 32.7 8 24 8 15.3 8 11 15.2 11 24 11 32.8 18 41.5 18 49 18 56.1 17 62.1 17 67 17 71.9 16.9 88 24 88 31.1 88 31 73.4 31 67 31 60.6 31.8 51 41 51 50.2 51 51 60.6 51 67 51 73.4 50.9 88 58 88 65.1 88 65 71.9 65 67 65 62.1 64 56.1 64 49Z" fill="#FFFFFF"/><path d="M75.489 7.338 75.489 7.338C77.1019 13.0213 81.083 17.7353 86.416 20.277L86.416 20.277C81.083 22.8182 77.102 27.532 75.489 33.215L75.489 33.215C73.8753 27.532 69.894 22.8184 64.561 20.277L64.561 20.277C69.8941 17.7351 73.8754 13.0212 75.489 7.338Z" fill="#FFFFFF"/></svg>